<svg width="38" height="38" viewBox="0 0 38 38" fill="none" xmlns="http://www.w3.org/2000/svg">
<g clip-path="url(#clip0_1978_43729)">
<path d="M34.082 12.0391H32.9219V8.55859C32.9219 7.91587 32.4021 7.39844 31.7617 7.39844H3.91797C1.99907 7.39844 0.4375 8.96001 0.4375 10.8789V31.7617C0.4375 33.6806 1.99907 35.2422 3.91797 35.2422H34.082C34.7224 35.2422 35.2422 34.7224 35.2422 34.082V13.1992C35.2422 12.5565 34.7224 12.0391 34.082 12.0391Z" fill="#0074BD"/>
<path d="M3.91797 9.71875H30.6016V12.0391H3.91797C3.27756 12.0391 2.75781 11.5193 2.75781 10.8789C2.75781 10.2385 3.27756 9.71875 3.91797 9.71875Z" fill="#FAFAFA"/>
<path d="M36.4023 25.9609H29.4414C27.5202 25.9609 25.9609 24.4017 25.9609 22.4805C25.9609 20.5569 27.5202 19 29.4414 19H36.4023C37.0428 19 37.5625 19.5197 37.5625 20.1602V24.8008C37.5625 25.4412 37.0428 25.9609 36.4023 25.9609Z" fill="#009CFD"/>
<path d="M30.1587 12.0394L25.8383 3.39859C25.5506 2.82548 24.8545 2.59577 24.2814 2.87884L5.96484 12.0394H30.1587Z" fill="#2EB02E"/>
<path d="M2.75781 12.0386H25.5178L21.1973 3.39777C20.9096 2.82465 20.2135 2.59494 19.6404 2.88034L2.75781 11.3216V12.0386Z" fill="#A4E7A4"/>
</g>
<defs>
<clipPath id="clip0_1978_43729">
<rect width="37.125" height="37.125" fill="white" transform="translate(0.4375 0.4375)"/>
</clipPath>
</defs>
</svg>
