<svg width="96" height="33" viewBox="0 0 96 33" fill="none" xmlns="http://www.w3.org/2000/svg">
<path d="M3.8998 0H92.1002C94.2516 0 96 1.74841 96 3.8998V28.5985C96 30.7499 94.2516 32.4983 92.1002 32.4983H3.8998C1.74841 32.4983 0 30.7499 0 28.5985V3.8998C0 1.74841 1.74841 0 3.8998 0Z" fill="black"/>
<path d="M21.0121 15.5038C20.9926 13.1769 22.9165 12.046 23.001 11.994C21.909 10.4081 20.2191 10.1871 19.6276 10.1676C18.2107 10.0181 16.8328 11.019 16.1113 11.019C15.3768 11.019 14.2589 10.1871 13.063 10.2066C11.5226 10.2326 10.0731 11.123 9.28667 12.5139C7.65525 15.3413 8.87069 19.5011 10.4371 21.789C11.2236 22.9069 12.1335 24.1613 13.336 24.1158C14.5059 24.0703 14.9479 23.3684 16.3583 23.3684C17.7622 23.3684 18.1717 24.1158 19.3936 24.0898C20.6546 24.0703 21.441 22.9654 22.2015 21.8345C23.1049 20.554 23.4689 19.2866 23.4819 19.2216C23.4494 19.2086 21.0381 18.2856 21.0121 15.5038Z" fill="white"/>
<path d="M18.7057 8.66569C19.3362 7.87923 19.7652 6.80679 19.6482 5.71484C18.7382 5.75384 17.5943 6.34531 16.9378 7.11877C16.3593 7.80124 15.8394 8.91268 15.9694 9.95912C16.9963 10.0371 18.0492 9.43915 18.7057 8.66569Z" fill="white"/>
<path d="M37.9892 23.9633H36.3513L35.4543 21.1424H32.3345L31.483 23.9633H29.8906L32.978 14.3633H34.8889L37.9892 23.9633ZM35.1878 19.9595L34.3754 17.4571C34.2909 17.1971 34.1284 16.5992 33.8944 15.6502H33.8619C33.7644 16.0597 33.6149 16.6642 33.4069 17.4571L32.6075 19.9595H35.1878Z" fill="white"/>
<path d="M45.9265 20.4173C45.9265 21.5938 45.608 22.5232 44.9645 23.2057C44.3925 23.8167 43.6776 24.1157 42.8326 24.1157C41.9162 24.1157 41.2597 23.7907 40.8567 23.1342V26.7675H39.3163V19.3124C39.3163 18.5714 39.2968 17.8175 39.2578 17.0375H40.6097L40.6942 18.136H40.7202C41.2337 17.3105 42.0137 16.8945 43.0536 16.8945C43.8726 16.8945 44.5485 17.2195 45.0945 17.863C45.6535 18.5129 45.9265 19.3579 45.9265 20.4173ZM44.36 20.4693C44.36 19.7934 44.2106 19.2409 43.9051 18.8054C43.5736 18.3505 43.1251 18.123 42.5661 18.123C42.1892 18.123 41.8447 18.253 41.5327 18.4999C41.2272 18.7534 41.0192 19.0784 40.9282 19.4879C40.8827 19.6764 40.8567 19.8324 40.8567 19.9559V21.1128C40.8567 21.6133 41.0127 22.0423 41.3182 22.3867C41.6237 22.7312 42.0267 22.9067 42.5206 22.9067C43.0991 22.9067 43.5476 22.6792 43.8726 22.2373C44.1976 21.7888 44.36 21.2038 44.36 20.4693Z" fill="white"/>
<path d="M53.8796 20.4173C53.8796 21.5938 53.5611 22.5232 52.9176 23.2057C52.3457 23.8167 51.6307 24.1157 50.7858 24.1157C49.8693 24.1157 49.2128 23.7907 48.8099 23.1342V26.7675H47.2694V19.3124C47.2694 18.5714 47.2499 17.8175 47.2109 17.0375H48.5629L48.6474 18.136H48.6734C49.1868 17.3105 49.9668 16.8945 51.0067 16.8945C51.8257 16.8945 52.5017 17.2195 53.0476 17.863C53.6066 18.5129 53.8796 19.3579 53.8796 20.4173ZM52.3132 20.4693C52.3132 19.7934 52.1637 19.2409 51.8582 18.8054C51.5267 18.3505 51.0782 18.123 50.5193 18.123C50.1423 18.123 49.7978 18.253 49.4858 18.4999C49.1803 18.7534 48.9788 19.0784 48.8814 19.4879C48.8359 19.6764 48.8099 19.8324 48.8099 19.9559V21.1128C48.8099 21.6133 48.9658 22.0423 49.2713 22.3867C49.5768 22.7312 49.9798 22.9067 50.4738 22.9067C51.0522 22.9067 51.5072 22.6792 51.8257 22.2373C52.1572 21.7888 52.3132 21.2038 52.3132 20.4693Z" fill="white"/>
<path d="M62.7831 21.2722C62.7831 22.0912 62.4971 22.7541 61.9317 23.2676C61.3077 23.8266 60.4368 24.106 59.3188 24.106C58.2854 24.106 57.4599 23.9046 56.8359 23.5081L57.1934 22.2276C57.8694 22.6241 58.6103 22.8256 59.4163 22.8256C59.9948 22.8256 60.4497 22.6956 60.7682 22.4356C61.0932 22.1756 61.2557 21.8247 61.2557 21.3892C61.2557 20.9992 61.1192 20.6742 60.8592 20.4077C60.5927 20.1413 60.1508 19.8943 59.5333 19.6668C57.8369 19.0363 56.9984 18.1199 56.9984 16.9174C56.9984 16.131 57.2974 15.4875 57.8889 14.9805C58.4804 14.48 59.2668 14.2266 60.2483 14.2266C61.1192 14.2266 61.8472 14.3761 62.4256 14.6815L62.0357 15.9295C61.4897 15.637 60.8787 15.4875 60.1898 15.4875C59.6503 15.4875 59.2213 15.624 58.9158 15.884C58.6623 16.1245 58.5323 16.4104 58.5323 16.7549C58.5323 17.1319 58.6818 17.4504 58.9743 17.6909C59.2278 17.9184 59.6958 18.1654 60.3718 18.4318C61.1972 18.7633 61.8017 19.1533 62.1917 19.6018C62.5881 20.0503 62.7831 20.6092 62.7831 21.2722Z" fill="white"/>
<path d="M67.8798 18.1997H66.1833V21.56C66.1833 22.4114 66.4823 22.8404 67.0803 22.8404C67.3533 22.8404 67.5808 22.8144 67.7628 22.7689L67.8083 23.9389C67.5028 24.0494 67.1063 24.1079 66.6123 24.1079C66.0014 24.1079 65.5334 23.9194 65.1889 23.5489C64.8444 23.1784 64.6754 22.5544 64.6754 21.6835V18.1932H63.668V17.0427H64.6754V15.7753L66.1833 15.3203V17.0427H67.8798V18.1997Z" fill="white"/>
<path d="M75.5135 20.4486C75.5135 21.5145 75.208 22.3855 74.6036 23.0679C73.9666 23.7699 73.1216 24.1209 72.0687 24.1209C71.0548 24.1209 70.2423 23.7829 69.6378 23.1134C69.0334 22.444 68.7344 21.5925 68.7344 20.5656C68.7344 19.4931 69.0464 18.6157 69.6638 17.9332C70.2878 17.2507 71.1263 16.9062 72.1792 16.9062C73.1931 16.9062 74.0121 17.2442 74.6296 17.9202C75.221 18.5702 75.5135 19.4151 75.5135 20.4486ZM73.9211 20.4811C73.9211 19.8441 73.7846 19.3046 73.5116 18.8496C73.1866 18.2972 72.7252 18.0242 72.1272 18.0242C71.5097 18.0242 71.0353 18.2972 70.7168 18.8496C70.4373 19.3046 70.3073 19.8571 70.3073 20.5136C70.3073 21.1505 70.4438 21.6965 70.7168 22.145C71.0483 22.6974 71.5162 22.9704 72.1142 22.9704C72.6992 22.9704 73.1606 22.6909 73.4986 22.132C73.7781 21.664 73.9211 21.118 73.9211 20.4811Z" fill="white"/>
<path d="M80.516 18.3895C80.3665 18.3635 80.204 18.3505 80.0285 18.3505C79.489 18.3505 79.0666 18.5519 78.7741 18.9614C78.5206 19.3189 78.3906 19.7804 78.3906 20.3264V23.9597H76.8502V19.2149C76.8502 18.4155 76.8372 17.6875 76.8047 17.0375H78.1436L78.2021 18.3635H78.2476C78.4101 17.9085 78.6636 17.538 79.0146 17.265C79.3591 17.018 79.7295 16.8945 80.126 16.8945C80.269 16.8945 80.399 16.9075 80.5095 16.9205L80.516 18.3895Z" fill="white"/>
<path d="M87.3935 20.1742C87.3935 20.4472 87.374 20.6812 87.335 20.8697H82.7202C82.7397 21.5522 82.9607 22.0786 83.3897 22.4361C83.7796 22.7546 84.2801 22.9171 84.8976 22.9171C85.5801 22.9171 86.204 22.8066 86.763 22.5921L87.0035 23.6581C86.347 23.944 85.5736 24.087 84.6831 24.087C83.6107 24.087 82.7657 23.7685 82.1547 23.1381C81.5438 22.5076 81.2383 21.6562 81.2383 20.5967C81.2383 19.5568 81.5243 18.6858 82.0962 17.9903C82.6942 17.2494 83.5002 16.8789 84.5141 16.8789C85.5086 16.8789 86.269 17.2494 86.776 17.9903C87.1855 18.5883 87.3935 19.3098 87.3935 20.1742ZM85.9245 19.7778C85.9375 19.3228 85.8335 18.9263 85.6256 18.5948C85.3591 18.1658 84.9496 17.9514 84.4036 17.9514C83.9031 17.9514 83.4937 18.1593 83.1817 18.5753C82.9282 18.9068 82.7722 19.3098 82.7267 19.7713L85.9245 19.7778Z" fill="white"/>
<path d="M34.4491 10.9297H33.6432L33.2012 9.54526H31.6673L31.2448 10.9297H30.4648L31.9793 6.21094H32.9152L34.4491 10.9297ZM33.0647 8.96029L32.6682 7.72536C32.6292 7.60187 32.5512 7.30288 32.4277 6.83491H32.4147C32.3627 7.03639 32.2977 7.32888 32.1873 7.72536L31.7973 8.96029H33.0647Z" fill="white"/>
<path d="M38.2459 7.52344L36.959 10.9293H36.2245L34.9766 7.52344H35.789L36.3675 9.32384C36.465 9.62283 36.5495 9.90881 36.6145 10.1818H36.634C36.6925 9.93481 36.777 9.64883 36.881 9.32384L37.4529 7.52344H38.2459Z" fill="white"/>
<path d="M40.9874 10.9253L40.9289 10.5353H40.9094C40.6754 10.8473 40.3439 11.0033 39.9149 11.0033C39.304 11.0033 38.875 10.5743 38.875 10.0023C38.875 9.16385 39.603 8.72837 40.8639 8.72837V8.66337C40.8639 8.2149 40.6234 7.99391 40.1554 7.99391C39.8175 7.99391 39.525 8.07841 39.265 8.2474L39.109 7.75342C39.421 7.55843 39.8175 7.46094 40.2789 7.46094C41.1694 7.46094 41.6179 7.92891 41.6179 8.87136V10.1258C41.6179 10.4703 41.6309 10.7368 41.6699 10.9383L40.9874 10.9253ZM40.8834 9.22885C40.0449 9.22885 39.6225 9.43033 39.6225 9.91781C39.6225 10.2753 39.837 10.4508 40.1424 10.4508C40.5259 10.4508 40.8834 10.1583 40.8834 9.75532V9.22885Z" fill="white"/>
<path d="M43.3 6.96205C43.0466 6.96205 42.8516 6.76706 42.8516 6.50707C42.8516 6.24708 43.0531 6.05859 43.313 6.05859C43.573 6.05859 43.781 6.24708 43.7745 6.50707C43.7745 6.78006 43.5795 6.96205 43.3 6.96205ZM42.9361 7.52102H43.69V10.9203H42.9361V7.52102Z" fill="white"/>
<path d="M45.0352 5.96094H45.7891V10.9202H45.0352V5.96094Z" fill="white"/>
<path d="M49.003 10.9279L48.9445 10.5379H48.925C48.691 10.8499 48.3595 11.0058 47.9306 11.0058C47.3196 11.0058 46.8906 10.5769 46.8906 10.0049C46.8906 9.16644 47.6186 8.73096 48.8795 8.73096V8.66597C48.8795 8.21749 48.639 7.9965 48.1711 7.9965C47.8331 7.9965 47.5406 8.081 47.2806 8.24999L47.1246 7.74952C47.4366 7.55453 47.8331 7.45703 48.2946 7.45703C49.185 7.45703 49.6335 7.92501 49.6335 8.86746V10.1219C49.6335 10.4664 49.6465 10.7329 49.679 10.9344H49.003V10.9279ZM48.899 9.23144C48.0606 9.23144 47.6381 9.43293 47.6381 9.9204C47.6381 10.2779 47.8526 10.4534 48.1581 10.4534C48.5415 10.4534 48.899 10.1609 48.899 9.75791V9.23144Z" fill="white"/>
<path d="M52.7002 11.0047C52.2192 11.0047 51.8617 10.8032 51.6277 10.4002H51.6147L51.5692 10.9267H50.9258C50.9453 10.6537 50.9518 10.3482 50.9518 10.0102V5.96094H51.7122V8.02133H51.7252C51.9527 7.64435 52.3102 7.45586 52.8107 7.45586C53.6296 7.45586 54.2016 8.15782 54.2016 9.17827C54.2016 10.2312 53.5646 11.0047 52.7002 11.0047ZM52.5442 8.04733C52.1087 8.04733 51.7122 8.42431 51.7122 8.95078V9.54875C51.7122 10.0167 52.0697 10.4002 52.5312 10.4002C53.0967 10.4002 53.4347 9.93873 53.4347 9.20427C53.4347 8.5153 53.0837 8.04733 52.5442 8.04733Z" fill="white"/>
<path d="M55.3203 5.96094H56.0743V10.9202H55.3203V5.96094Z" fill="white"/>
<path d="M60.1878 9.4043H57.9194C57.9324 10.0478 58.3613 10.4118 58.9918 10.4118C59.3298 10.4118 59.6353 10.3533 59.9083 10.2493L60.0253 10.7757C59.7068 10.9187 59.3298 10.9837 58.8878 10.9837C57.8219 10.9837 57.1914 10.3143 57.1914 9.26781C57.1914 8.22787 57.8349 7.44141 58.8033 7.44141C59.6678 7.44141 60.2202 8.08487 60.2202 9.05982C60.2202 9.19631 60.2137 9.31331 60.1878 9.4043ZM59.4988 8.86483C59.4988 8.33836 59.2323 7.96788 58.7513 7.96788C58.3158 7.96788 57.9779 8.34486 57.9259 8.86483H59.4988Z" fill="white"/>
<path d="M64.7707 11.0058C63.7763 11.0058 63.1328 10.2649 63.1328 9.25744C63.1328 8.20449 63.7893 7.45703 64.8292 7.45703C65.8107 7.45703 66.4671 8.16549 66.4671 9.19894C66.4671 10.2584 65.7912 11.0058 64.7707 11.0058ZM64.8032 8.0095C64.2573 8.0095 63.9063 8.52298 63.9063 9.23144C63.9063 9.9334 64.2638 10.4404 64.7967 10.4404C65.3297 10.4404 65.6872 9.8944 65.6872 9.21194C65.6807 8.52298 65.3362 8.0095 64.8032 8.0095Z" fill="white"/>
<path d="M70.5276 10.9265H69.7737V8.97014C69.7737 8.36567 69.5397 8.06669 69.0847 8.06669C68.6362 8.06669 68.3307 8.45017 68.3307 8.89864V10.92H67.5768V8.49566C67.5768 8.19668 67.5703 7.8717 67.5508 7.52072H68.2137L68.2462 8.04719H68.2657C68.4672 7.68321 68.8832 7.44922 69.3447 7.44922C70.0597 7.44922 70.5276 7.99519 70.5276 8.88564V10.9265Z" fill="white"/>
<path d="M75.4745 8.09271H74.6425V9.74362C74.6425 10.1661 74.792 10.3741 75.0845 10.3741C75.2145 10.3741 75.3315 10.3611 75.4225 10.3416L75.442 10.9136C75.2925 10.9721 75.0975 10.9981 74.857 10.9981C74.259 10.9981 73.908 10.6666 73.908 9.80862V8.09271H73.4141V7.52724H73.908V6.90327L74.649 6.67578V7.52074H75.481V8.09271" fill="white"/>
<path d="M79.4782 10.9267H78.7242V8.98328C78.7242 8.37231 78.4902 8.06683 78.0353 8.06683C77.6453 8.06683 77.2813 8.33331 77.2813 8.87279V10.9202H76.5273V5.96094H77.2813V8.00183H77.2943C77.5348 7.63135 77.8728 7.44936 78.3148 7.44936C79.0362 7.44936 79.4782 8.00833 79.4782 8.89878V10.9267Z" fill="white"/>
<path d="M83.3401 9.4043H81.0717C81.0847 10.0478 81.5137 10.4118 82.1442 10.4118C82.4821 10.4118 82.7876 10.3533 83.0606 10.2493L83.1776 10.7757C82.8591 10.9187 82.4821 10.9837 82.0402 10.9837C80.9742 10.9837 80.3438 10.3143 80.3438 9.26781C80.3438 8.22787 80.9872 7.44141 81.9557 7.44141C82.8201 7.44141 83.3726 8.08487 83.3726 9.05982C83.3726 9.19631 83.3661 9.31331 83.3401 9.4043ZM82.6511 8.86483C82.6511 8.33836 82.3846 7.96788 81.9037 7.96788C81.4682 7.96788 81.1237 8.34486 81.0782 8.86483H82.6511Z" fill="white"/>
</svg>
