<svg width="96" height="33" viewBox="0 0 96 33" fill="none" xmlns="http://www.w3.org/2000/svg">
<path d="M3.8998 0H92.1002C94.2516 0 96 1.74841 96 3.8998V28.5985C96 30.7499 94.2516 32.4983 92.1002 32.4983H3.8998C1.74841 32.4983 0 30.7499 0 28.5985V3.8998C0 1.74841 1.74841 0 3.8998 0Z" fill="black"/>
<path d="M11.7111 15.601C11.7111 15.601 5.08791 11.9287 4.69793 11.7142C4.30795 11.4998 3.91797 11.6297 3.91797 12.0782V27.9049C3.91797 28.2429 4.19745 28.3859 4.53544 28.2039C4.87342 28.0154 11.7111 24.2261 11.7111 24.2261C11.7111 24.2261 12.6405 23.7126 13.102 23.4526C13.8495 23.0367 15.3444 22.2112 15.3444 22.2112C15.3444 22.2112 18.4317 20.5018 18.8412 20.2743C19.2507 20.0468 19.2117 19.7348 18.8672 19.5593C18.5227 19.3838 15.3509 17.6094 15.3509 17.6094L11.7111 15.601Z" fill="url(#paint0_linear_7300_12622)"/>
<path d="M12.933 19.8913L4.22342 11.6367C4.02193 11.6822 3.89844 11.8382 3.89844 12.0917V27.8859C3.89844 28.1004 3.98293 28.2304 4.09343 28.2759L12.933 19.8913Z" fill="url(#paint1_linear_7300_12622)"/>
<mask id="mask0_7300_12622" style="mask-type:alpha" maskUnits="userSpaceOnUse" x="3" y="11" width="10" height="18">
<path d="M12.933 19.8913L4.22342 11.6367C4.02193 11.6822 3.89844 11.8382 3.89844 12.0917V27.8859C3.89844 28.1004 3.98293 28.2304 4.09343 28.2759L12.933 19.8913Z" fill="white"/>
</mask>
<g mask="url(#mask0_7300_12622)">
</g>
<mask id="mask1_7300_12622" style="mask-type:alpha" maskUnits="userSpaceOnUse" x="4" y="19" width="12" height="10">
<path d="M4.45123 28.2375L9.48847 25.4686C10.7299 24.7797 11.7114 24.2337 11.7114 24.2337L15.3707 22.2643L12.9333 19.8984L4.09375 28.283C4.19124 28.3155 4.36674 28.296 4.50323 28.231" fill="white"/>
</mask>
<g mask="url(#mask1_7300_12622)">
<path d="M11.698 15.6055C11.685 15.638 5.06188 11.9592 4.6784 11.7707C4.28842 11.5237 3.89844 11.6602 3.89844 12.0957V27.9549C3.89844 28.3059 4.17792 28.4489 4.48341 28.2799C4.85389 28.0719 11.685 24.2826 11.698 24.2501L15.3378 22.2352C15.3183 22.2612 18.3992 20.5518 18.7827 20.3503C19.2246 20.0968 19.1791 19.7848 18.8477 19.6353C18.4902 19.4273 15.3183 17.6529 15.3378 17.6204L11.698 15.6055Z" fill="url(#paint2_linear_7300_12622)"/>
</g>
<path d="M4.68282 11.7048C4.51383 11.6203 4.35134 11.5943 4.21484 11.6268L12.9309 19.8944L15.3423 17.613L11.709 15.5981C11.709 15.5981 8.28363 13.7002 6.21674 12.5563L4.68282 11.7048Z" fill="url(#paint3_linear_7300_12622)"/>
<mask id="mask2_7300_12622" style="mask-type:alpha" maskUnits="userSpaceOnUse" x="4" y="11" width="12" height="9">
<path d="M4.68282 11.7048C4.51383 11.6203 4.35134 11.5943 4.21484 11.6268L12.9309 19.8944L15.3423 17.613L11.709 15.5981C11.709 15.5981 8.28363 13.7002 6.21674 12.5563L4.68282 11.7048Z" fill="white"/>
</mask>
<g mask="url(#mask2_7300_12622)">
</g>
<path d="M65.7527 22.6749L65.0313 23.3574C64.8623 23.4484 64.6998 23.5589 64.5373 23.6304C64.0368 23.8578 63.5299 23.9163 63.0749 23.9163C62.5939 23.9163 61.8399 23.8838 61.073 23.3249C60.007 22.5709 59.5391 21.2645 59.5391 20.1335C59.5391 17.7872 61.437 16.6367 62.9904 16.6367C63.5299 16.6367 64.0888 16.7732 64.5373 17.0592C65.2913 17.5597 65.4863 18.2096 65.5902 18.5606L62.0544 19.997L60.8975 20.088C61.2745 22.0119 62.5679 23.1299 63.9978 23.1299C64.7128 23.1299 65.2393 22.8959 65.7267 22.6554C65.7267 22.6554 65.8242 22.6034 65.7527 22.6749ZM63.5949 18.8141C63.8808 18.7101 64.0238 18.6191 64.0238 18.4046C64.0238 17.7937 63.3544 17.0917 62.5484 17.0917C61.9569 17.0917 60.839 17.5662 60.839 19.2106C60.839 19.4706 60.8715 19.7436 60.8845 20.0165L63.5949 18.8141Z" fill="white"/>
<path d="M58.3655 22.591C58.3655 23.176 58.4695 23.267 58.9635 23.3125C59.2234 23.345 59.4769 23.358 59.7304 23.384L59.1779 23.7154H56.5326C56.8771 23.2605 56.9421 23.215 56.9421 22.916V22.578L56.9356 13.6085H55.7656L56.8901 13.0625H59.035C58.567 13.3355 58.4305 13.498 58.372 14.0244L58.3655 22.591Z" fill="white"/>
<path d="M54.2655 17.378C54.61 17.664 55.3249 18.2685 55.3249 19.4124C55.3249 20.5303 54.701 21.0568 54.0705 21.5573C53.8755 21.7523 53.648 21.9668 53.648 22.2982C53.648 22.6297 53.8755 22.8117 54.038 22.9482L54.5775 23.3707C55.2339 23.9297 55.8319 24.4431 55.8319 25.4831C55.8319 26.9 54.467 28.3364 51.8931 28.3364C49.7222 28.3364 48.6758 27.2965 48.6758 26.1785C48.6758 25.6326 48.9423 24.8656 49.8327 24.3391C50.7622 23.7672 52.0166 23.6892 52.6926 23.6437C52.4846 23.3707 52.2441 23.0847 52.2441 22.6167C52.2441 22.3632 52.3221 22.2073 52.3936 22.0253C52.2311 22.0383 52.0621 22.0578 51.9126 22.0578C50.3267 22.0578 49.4297 20.8618 49.4297 19.6854C49.4297 18.9899 49.7417 18.223 50.3917 17.664C51.2431 16.9555 52.2636 16.832 53.0696 16.832H56.1569L55.1949 17.378H54.2655ZM53.2125 24.0662C53.0891 24.0467 53.0176 24.0467 52.8681 24.0467C52.7316 24.0467 51.9126 24.0792 51.2821 24.2936C50.9507 24.4171 49.9822 24.7876 49.9822 25.8796C49.9822 26.9715 51.0222 27.758 52.6406 27.758C54.09 27.758 54.857 27.0495 54.857 26.1005C54.857 25.3076 54.3565 24.8916 53.2125 24.0662ZM53.635 21.1543C53.9795 20.8098 54.012 20.3288 54.012 20.0559C54.012 18.9704 53.375 17.287 52.1336 17.287C51.7501 17.287 51.3276 17.482 51.0872 17.7875C50.8337 18.0995 50.7622 18.5089 50.7622 18.8989C50.7622 19.9064 51.3471 21.5768 52.6276 21.5768C52.9981 21.5768 53.401 21.3948 53.635 21.1543Z" fill="white"/>
<path d="M44.9327 23.9163C42.5474 23.9163 41.2734 22.0314 41.2734 20.3285C41.2734 18.3396 42.8789 16.6367 45.1602 16.6367C47.3636 16.6367 48.748 18.3851 48.748 20.2245C48.748 22.0184 47.3831 23.9163 44.9327 23.9163ZM46.7981 22.6879C47.1621 22.2004 47.2531 21.5895 47.2531 20.998C47.2531 19.6526 46.6227 17.0917 44.7508 17.0917C44.2568 17.0917 43.7563 17.2867 43.3923 17.6117C42.8074 18.1446 42.6969 18.8141 42.6969 19.4706C42.6969 20.9785 43.4313 23.4614 45.2577 23.4614C45.8557 23.4614 46.4537 23.1754 46.7981 22.6879Z" fill="white"/>
<path d="M36.9406 23.9163C34.5552 23.9163 33.2812 22.0314 33.2812 20.3285C33.2812 18.3396 34.8867 16.6367 37.168 16.6367C39.3714 16.6367 40.7559 18.3851 40.7559 20.2245C40.7559 22.0184 39.3909 23.9163 36.9406 23.9163ZM38.806 22.6879C39.1699 22.2004 39.2609 21.5895 39.2609 20.998C39.2609 19.6526 38.624 17.0917 36.7586 17.0917C36.2581 17.0917 35.7641 17.2867 35.4001 17.6117C34.8087 18.1446 34.7047 18.8141 34.7047 19.4706C34.7047 20.9785 35.4456 23.4614 37.2655 23.4614C37.8635 23.4614 38.4615 23.1754 38.806 22.6879Z" fill="white"/>
<path d="M32.2912 23.4669L30.2698 23.9349C29.4508 24.0649 28.7164 24.1819 27.9364 24.1819C24.0366 24.1754 22.5547 21.2895 22.5547 19.0277C22.5547 16.2718 24.6606 13.7109 28.2614 13.7109C29.0219 13.7109 29.7563 13.8214 30.4258 14.0099C31.4852 14.3089 31.9792 14.6794 32.2912 14.8939L31.1147 16.0183L30.6208 16.1288L30.9717 15.5633C30.4908 15.0954 29.6133 14.2244 27.9494 14.2244C25.72 14.2244 24.0366 15.9273 24.0366 18.4167C24.0366 21.0881 25.954 23.6034 29.0348 23.6034C29.9383 23.6034 30.4063 23.4214 30.8288 23.2524V20.9581L28.6969 21.0751L29.8278 20.4641H32.8242L32.4602 20.8216C32.3627 20.9061 32.3497 20.9321 32.3172 21.0491C32.3042 21.179 32.2912 21.5885 32.2912 21.738V23.4669Z" fill="white"/>
<path d="M70.112 22.7399V26.5812H69.3516V16.8122H70.112V17.9237C70.606 17.2022 71.516 16.6367 72.5624 16.6367C74.4473 16.6367 75.7212 18.0731 75.7212 20.3415C75.7212 22.5969 74.4538 24.0593 72.5624 24.0593C71.5744 24.0593 70.684 23.5459 70.112 22.7399ZM74.9413 20.4C74.9413 18.6711 74.0508 17.3517 72.4649 17.3517C71.4835 17.3517 70.541 18.1316 70.1315 18.8141V21.9729C70.541 22.6554 71.4835 23.4614 72.4649 23.4614C74.0508 23.4614 74.9413 22.1289 74.9413 20.4Z" fill="white"/>
<path d="M76.7617 14.1016H77.5417V23.9161H76.7617V14.1016Z" fill="white"/>
<path d="M86.0209 25.9081C86.1834 25.9796 86.4629 26.0251 86.6384 26.0251C87.1063 26.0251 87.4248 25.8366 87.7173 25.1606L88.2698 23.8997L85.2734 16.7695H86.1249L88.6923 22.9507L91.2401 16.7695H92.0981L88.4453 25.3946C88.0683 26.285 87.4703 26.714 86.6514 26.714C86.4044 26.714 86.0794 26.6685 85.8909 26.61L86.0209 25.9081Z" fill="white"/>
<path d="M83.8704 23.9098C83.8184 23.6629 83.7794 23.4484 83.7534 23.2664C83.7274 23.0844 83.7144 22.9024 83.7144 22.7139C83.4544 23.0974 83.0839 23.4224 82.6029 23.6759C82.1284 23.9293 81.6735 24.0528 81.056 24.0528C80.3085 24.0528 79.7301 23.8708 79.3206 23.4939C78.9111 23.1234 78.7031 22.6164 78.7031 21.9794C78.7031 21.3425 79.0021 20.8225 79.6001 20.426C80.198 20.0295 80.9715 19.8281 81.927 19.8281H83.7079V18.9441C83.7079 18.4371 83.5324 18.0341 83.1879 17.7482C82.8434 17.4557 82.3559 17.3127 81.7255 17.3127C81.147 17.3127 80.679 17.4492 80.3215 17.7092C79.9706 17.9756 79.7886 18.3071 79.7886 18.7036H79.0086L78.9956 18.6646C78.9696 18.1251 79.2101 17.6572 79.7366 17.2477C80.2565 16.8382 80.9325 16.6367 81.771 16.6367C82.6029 16.6367 83.2789 16.8382 83.7859 17.2412C84.2928 17.6377 84.5463 18.2161 84.5463 18.9636V22.4734C84.5463 22.7269 84.5593 22.9674 84.5918 23.2079C84.6243 23.4484 84.6763 23.6824 84.7413 23.9098H83.8704ZM81.1535 23.3964C81.8035 23.3964 82.2714 23.2469 82.7459 22.9609C83.2204 22.6749 83.5389 22.2979 83.7079 21.8429V20.4715H81.914C81.2315 20.4715 80.666 20.621 80.2175 20.933C79.7691 21.2385 79.5481 21.609 79.5481 22.0444C79.5481 22.4539 79.6911 22.7789 79.9771 23.0259C80.2695 23.2729 80.6595 23.3964 81.1535 23.3964Z" fill="white"/>
<path d="M22.293 7.49229C22.293 6.09486 23.4109 5.19141 24.8018 5.19141C25.7313 5.19141 26.3423 5.60738 26.7257 6.11436L26.0433 6.47834C25.7833 6.14686 25.3348 5.88687 24.8018 5.88687C23.8594 5.88687 23.1509 6.55634 23.1509 7.49229C23.1574 8.42174 23.8594 9.0977 24.8018 9.0977C25.2893 9.0977 25.7183 8.88971 25.9328 8.69472V8.01226H24.5029V7.3233H26.7647V8.98071C26.2968 9.46818 25.6273 9.79317 24.8018 9.79317C23.4109 9.79967 22.293 8.88971 22.293 7.49229Z" fill="white"/>
<path d="M27.8477 9.73544V5.26367H31.169V5.95264H28.6991V7.10308H31.117V7.79854H28.6991V9.04647H31.169V9.73544H27.8477Z" fill="white"/>
<path d="M33.4273 9.73544V5.95264H31.9844V5.26367H35.7087V5.95264H34.2658V9.73544H33.4273Z" fill="white"/>
<path d="M38.6914 5.26367H39.5039V9.73544H38.6914V5.26367Z" fill="white"/>
<path d="M41.8296 9.73544V5.95264H40.3867V5.26367H44.111V5.95264H42.6681V9.73544H41.8296Z" fill="white"/>
<path d="M46.8945 7.5001C46.8945 6.17417 47.915 5.19922 49.3709 5.19922C50.8138 5.19922 51.8408 6.17417 51.8408 7.5001C51.8408 8.82603 50.8073 9.80098 49.3709 9.80098C47.915 9.80098 46.8945 8.82603 46.8945 7.5001ZM50.9568 7.4611C50.9568 6.55115 50.3329 5.86868 49.3644 5.86868C48.3895 5.86868 47.772 6.55115 47.772 7.4611C47.772 8.36455 48.3895 9.05352 49.3644 9.05352C50.3329 9.05352 50.9568 8.37105 50.9568 7.4611Z" fill="white"/>
<path d="M56.1091 9.73544L53.6197 6.53761V9.73544H52.7812V5.26367H53.6392L56.0766 8.36401V5.26367H56.915V9.73544H56.1091Z" fill="white"/>
<defs>
<linearGradient id="paint0_linear_7300_12622" x1="7.51069" y1="16.8757" x2="13.0302" y2="24.9754" gradientUnits="userSpaceOnUse">
<stop stop-color="#FF177B"/>
<stop offset="1" stop-color="#FFEC73"/>
</linearGradient>
<linearGradient id="paint1_linear_7300_12622" x1="9.85999" y1="5.53588" x2="-0.0540347" y2="26.5891" gradientUnits="userSpaceOnUse">
<stop stop-color="#064AA2"/>
<stop offset="1" stop-color="#63FFD4"/>
</linearGradient>
<linearGradient id="paint2_linear_7300_12622" x1="12.8623" y1="14.9914" x2="0.660678" y2="22.2907" gradientUnits="userSpaceOnUse">
<stop stop-color="#FF4521"/>
<stop offset="1" stop-color="#8A33DB"/>
</linearGradient>
<linearGradient id="paint3_linear_7300_12622" x1="5.86293" y1="8.97767" x2="10.2313" y2="20.3325" gradientUnits="userSpaceOnUse">
<stop stop-color="#00A3B5"/>
<stop offset="1" stop-color="#D6FFA1"/>
</linearGradient>
</defs>
</svg>
