<svg width="28" height="28" viewBox="0 0 28 28" fill="none" xmlns="http://www.w3.org/2000/svg">
<g clip-path="url(#clip0_7300_12575)">
<path d="M14 28C21.732 28 28 21.732 28 14C28 6.26801 21.732 0 14 0C6.26801 0 0 6.26801 0 14C0 21.732 6.26801 28 14 28Z" fill="#3B5998"/>
<path d="M17.5206 14.5504H15.0225V23.7024H11.2376V14.5504H9.4375V11.334H11.2376V9.25266C11.2376 7.76427 11.9446 5.43359 15.0562 5.43359L17.8598 5.44532V8.56736H15.8256C15.4919 8.56736 15.0227 8.73407 15.0227 9.44408V11.337H17.8513L17.5206 14.5504Z" fill="white"/>
</g>
<defs>
<clipPath id="clip0_7300_12575">
<rect width="28" height="28" fill="white"/>
</clipPath>
</defs>
</svg>
