<svg width="28" height="28" viewBox="0 0 28 28" fill="none" xmlns="http://www.w3.org/2000/svg">
<path d="M14 28C21.732 28 28 21.732 28 14C28 6.26801 21.732 0 14 0C6.26801 0 0 6.26801 0 14C0 21.732 6.26801 28 14 28Z" fill="url(#paint0_linear_7300_12580)"/>
<path d="M16.9723 6.22266H11.0301C8.37945 6.22266 6.22656 8.37555 6.22656 11.0262V16.9684C6.22656 19.6191 8.37945 21.772 11.0301 21.772H16.9723C19.623 21.772 21.7759 19.6191 21.7759 16.9684V11.0262C21.7759 8.37555 19.623 6.22266 16.9723 6.22266ZM20.0399 16.9747C20.0399 18.6671 18.6648 20.0484 16.9661 20.0484H11.0239C9.33145 20.0484 7.95012 18.6733 7.95012 16.9747V11.0324C7.95012 9.33999 9.32523 7.95866 11.0239 7.95866H16.9661C18.6586 7.95866 20.0399 9.33377 20.0399 11.0324V16.9747Z" fill="white"/>
<path d="M13.9994 10.0234C11.8092 10.0234 10.0234 11.8092 10.0234 13.9994C10.0234 16.1897 11.8092 17.9754 13.9994 17.9754C16.1897 17.9754 17.9754 16.1897 17.9754 13.9994C17.9754 11.8092 16.1897 10.0234 13.9994 10.0234ZM13.9994 16.4137C12.6679 16.4137 11.5852 15.331 11.5852 13.9994C11.5852 12.6679 12.6679 11.5852 13.9994 11.5852C15.331 11.5852 16.4137 12.6679 16.4137 13.9994C16.4137 15.331 15.331 16.4137 13.9994 16.4137Z" fill="white"/>
<path d="M18.2767 10.4573C18.6431 10.3979 18.8919 10.0528 18.8325 9.68651C18.7731 9.32019 18.428 9.07138 18.0617 9.13076C17.6954 9.19014 17.4466 9.53524 17.506 9.90155C17.5653 10.2679 17.9104 10.5167 18.2767 10.4573Z" fill="white"/>
<defs>
<linearGradient id="paint0_linear_7300_12580" x1="3.34003" y1="24.66" x2="23.2356" y2="4.76442" gradientUnits="userSpaceOnUse">
<stop stop-color="#FEE411"/>
<stop offset="0.0518459" stop-color="#FEDB16"/>
<stop offset="0.1381" stop-color="#FEC125"/>
<stop offset="0.2481" stop-color="#FE983D"/>
<stop offset="0.3762" stop-color="#FE5F5E"/>
<stop offset="0.5" stop-color="#FE2181"/>
<stop offset="1" stop-color="#9000DC"/>
</linearGradient>
</defs>
</svg>
