<svg width="24" height="24" viewBox="0 0 24 24" fill="none" xmlns="http://www.w3.org/2000/svg">
<g clip-path="url(#clip0_2086_48805)">
<path d="M12 24C18.6274 24 24 18.6274 24 12C24 5.37258 18.6274 0 12 0C5.37258 0 0 5.37258 0 12C0 18.6274 5.37258 24 12 24Z" fill="#0082FF"/>
<path d="M11.9994 5.68555C8.51149 5.68555 5.68359 8.3066 5.68359 11.5403C5.69039 12.4325 5.90686 13.3107 6.31553 14.1039C6.7242 14.8971 7.31362 15.5831 8.03623 16.1066L8.06149 18.1703C8.06199 18.1957 8.06909 18.2206 8.08211 18.2425C8.09513 18.2644 8.11361 18.2825 8.13575 18.2951C8.15788 18.3077 8.1829 18.3143 8.20836 18.3143C8.23382 18.3142 8.25884 18.3076 8.28096 18.295L10.2531 17.1755C10.8229 17.3263 11.41 17.4016 11.9994 17.3998C15.4873 17.3998 18.3152 14.7787 18.3152 11.545C18.3152 8.31134 15.4873 5.68555 11.9994 5.68555ZM12.4731 13.4224L11.1231 12.0171C11.0843 11.9772 11.0336 11.9509 10.9786 11.9424C10.9236 11.9338 10.8674 11.9434 10.8183 11.9698L8.44991 13.2455C8.43098 13.2545 8.40955 13.2567 8.3892 13.2518C8.36884 13.2469 8.35078 13.2351 8.33804 13.2185C8.3253 13.2019 8.31864 13.1814 8.31917 13.1605C8.3197 13.1395 8.32739 13.1194 8.34096 13.1034L11.1468 10.1461C11.1657 10.1259 11.1885 10.1097 11.2139 10.0987C11.2393 10.0877 11.2667 10.082 11.2944 10.082C11.3221 10.082 11.3495 10.0877 11.3749 10.0987C11.4002 10.1097 11.4231 10.1259 11.442 10.1461L12.7889 11.5782C12.8274 11.619 12.8783 11.6459 12.9337 11.6548C12.9891 11.6636 13.0459 11.6539 13.0952 11.6271L15.4241 10.364C15.4431 10.3523 15.4657 10.3481 15.4876 10.3521C15.5096 10.3561 15.5292 10.3682 15.5427 10.3858C15.5563 10.4035 15.5628 10.4256 15.561 10.4478C15.5592 10.47 15.5493 10.4908 15.5331 10.5061L12.7731 13.4303C12.7542 13.4514 12.7312 13.4683 12.7054 13.4799C12.6796 13.4915 12.6517 13.4976 12.6234 13.4977C12.5951 13.4979 12.5672 13.4921 12.5413 13.4807C12.5154 13.4694 12.4921 13.4527 12.4731 13.4319V13.4224Z" fill="white"/>
</g>
<defs>
<clipPath id="clip0_2086_48805">
<rect width="24" height="24" fill="white"/>
</clipPath>
</defs>
</svg>
