<svg width="31" height="31" viewBox="0 0 31 31" fill="none" xmlns="http://www.w3.org/2000/svg">
<g clip-path="url(#clip0_1978_43710)">
<path d="M27.7768 4.15234H10.2043C8.76015 4.15234 7.58594 5.32714 7.58594 6.77075C7.58594 8.21495 8.76015 9.38916 10.2043 9.38916H27.7768C29.2204 9.38916 30.3952 8.21495 30.3952 6.77075C30.3952 5.32714 29.2204 4.15234 27.7768 4.15234Z" fill="#0074BD"/>
<path d="M27.7768 12.8809H10.2043C8.76015 12.8809 7.58594 14.0557 7.58594 15.4993C7.58594 16.9435 8.76015 18.1177 10.2043 18.1177H27.7768C29.2204 18.1177 30.3952 16.9435 30.3952 15.4993C30.3952 14.0557 29.2204 12.8809 27.7768 12.8809Z" fill="#EC1C24"/>
<path d="M27.7768 21.6094H10.2043C8.76015 21.6094 7.58594 22.7842 7.58594 24.2278C7.58594 25.672 8.76015 26.8462 10.2043 26.8462H27.7768C29.2204 26.8462 30.3952 25.672 30.3952 24.2278C30.3952 22.7842 29.2204 21.6094 27.7768 21.6094Z" fill="#0074BD"/>
<path d="M3.22388 4.15234C1.77968 4.15234 0.605469 5.32714 0.605469 6.77075C0.605469 8.21495 1.77968 9.38916 3.22388 9.38916C4.66749 9.38916 5.84229 8.21495 5.84229 6.77075C5.84229 5.32714 4.66749 4.15234 3.22388 4.15234Z" fill="#EC1C24"/>
<path d="M3.22388 12.8809C1.77968 12.8809 0.605469 14.0557 0.605469 15.4993C0.605469 16.9435 1.77968 18.1177 3.22388 18.1177C4.66749 18.1177 5.84229 16.9435 5.84229 15.4993C5.84229 14.0557 4.66749 12.8809 3.22388 12.8809Z" fill="#0074BD"/>
<path d="M3.22388 21.6094C1.77968 21.6094 0.605469 22.7842 0.605469 24.2278C0.605469 25.672 1.77968 26.8462 3.22388 26.8462C4.66749 26.8462 5.84229 25.672 5.84229 24.2278C5.84229 22.7842 4.66749 21.6094 3.22388 21.6094Z" fill="#EC1C24"/>
</g>
<defs>
<clipPath id="clip0_1978_43710">
<rect width="29.7917" height="29.7917" fill="white" transform="translate(0.605469 0.603516)"/>
</clipPath>
</defs>
</svg>
