<svg width="24" height="24" viewBox="0 0 24 24" fill="none" xmlns="http://www.w3.org/2000/svg">
<circle cx="12" cy="12" r="12" fill="#7F7F7F"/>
<path d="M13.198 6.82378L10.7589 9.26283C10.7542 9.26752 10.7513 9.27321 10.7466 9.27795C11.3475 9.19043 11.9647 9.25043 12.5369 9.47355L14.1923 7.81816C14.7407 7.26975 15.6327 7.26975 16.1811 7.81816C16.7295 8.36653 16.7295 9.25849 16.1811 9.80686C16.0876 9.90042 13.601 12.387 13.742 12.2459C13.1893 12.7987 12.2824 12.7751 11.7533 12.2459C11.4792 11.9719 11.033 11.9719 10.7589 12.2459L10.332 12.6728C10.4504 12.874 10.5862 13.0676 10.7589 13.2403C11.8005 14.2819 13.5933 14.3651 14.7213 13.2526C14.726 13.248 14.7317 13.245 14.7364 13.2403L17.1755 10.8013C18.2738 9.70289 18.2738 7.92216 17.1755 6.82378C16.0771 5.72541 14.2964 5.72541 13.198 6.82378Z" fill="white"/>
<path d="M11.4676 14.5211L9.80687 16.1818C9.2585 16.7302 8.36654 16.7302 7.81817 16.1818C7.26976 15.6334 7.26976 14.7415 7.81817 14.1931C7.91169 14.0995 10.4036 11.6077 10.2625 11.7487C10.8153 11.1959 11.7221 11.2195 12.2513 11.7487C12.5253 12.0228 12.9716 12.0228 13.2456 11.7487L13.6725 11.3218C13.5541 11.1206 13.4184 10.927 13.2456 10.7543C12.2061 9.7147 10.4146 9.62625 9.28327 10.742C9.27856 10.7467 9.27289 10.7496 9.26815 10.7543L6.82376 13.1987C5.72544 14.297 5.72539 16.0778 6.82376 17.1762C7.92214 18.2745 9.70292 18.2745 10.8012 17.1762L13.2456 14.7318C13.2503 14.7271 13.2533 14.7215 13.2579 14.7167C12.6571 14.8042 12.0398 14.7442 11.4676 14.5211Z" fill="white"/>
</svg>
