<svg width="38" height="38" viewBox="0 0 38 38" fill="none" xmlns="http://www.w3.org/2000/svg">
<g clip-path="url(#clip0_1978_43629)">
<path d="M34.9773 11.9746H3.44141V36.2515H34.9773V11.9746Z" fill="url(#paint0_linear_1978_43629)"/>
<path d="M3.44141 16.5464L23.1467 36.2517H34.977V11.9746H3.44141V16.5464Z" fill="url(#paint1_linear_1978_43629)"/>
<path d="M30.1044 36.2507H14.6816L6.20366 27.7728C5.83045 27.5308 5.58203 27.1109 5.58203 26.6347V19.8113C5.58203 19.0638 6.19068 18.4551 6.93825 18.4551H11.8575C12.3349 18.4551 12.7547 18.7035 12.9967 19.0767L12.9598 19.106L30.1044 36.2507Z" fill="url(#paint2_linear_1978_43629)"/>
<path d="M11.8555 27.1976H6.93666C6.62646 27.1976 6.375 26.9462 6.375 26.636V19.8136C6.375 19.5034 6.62646 19.252 6.93666 19.252H11.8555C12.1657 19.252 12.4172 19.5034 12.4172 19.8136V26.636C12.4171 26.9461 12.1657 27.1976 11.8555 27.1976Z" fill="#503837"/>
<path d="M11.8576 27.9908H6.93869C6.19061 27.9908 5.58203 27.3822 5.58203 26.6342V19.8117C5.58203 19.0637 6.19061 18.4551 6.93869 18.4551H11.8575C12.6056 18.4551 13.2142 19.0637 13.2142 19.8117V26.6342C13.2143 27.3823 12.6056 27.9908 11.8576 27.9908ZM7.1721 26.4008H11.6242V20.0453H7.1721C7.1721 20.0452 7.1721 26.4008 7.1721 26.4008Z" fill="url(#paint3_linear_1978_43629)"/>
<path d="M34.9791 21.2695V36.2508H34.4952L26.0173 27.7728C25.643 27.5308 25.3945 27.1109 25.3945 26.6347V19.8113C25.3945 19.0638 26.0032 18.4551 26.7518 18.4551H31.67C32.1474 18.4551 32.5673 18.7035 32.8092 19.0767L32.8287 19.0919L32.8157 19.1061L34.9791 21.2695Z" fill="url(#paint4_linear_1978_43629)"/>
<path d="M31.668 27.1976H26.7492C26.439 27.1976 26.1875 26.9462 26.1875 26.636V19.8136C26.1875 19.5034 26.439 19.252 26.7492 19.252H31.668C31.9782 19.252 32.2297 19.5034 32.2297 19.8136V26.636C32.2297 26.9461 31.9782 27.1976 31.668 27.1976Z" fill="#503837"/>
<path d="M31.67 27.9908H26.7512C26.0031 27.9908 25.3945 27.3822 25.3945 26.6342V19.8117C25.3945 19.0637 26.0031 18.4551 26.7512 18.4551H31.67C32.418 18.4551 33.0267 19.0637 33.0267 19.8117V26.6342C33.0267 27.3823 32.4182 27.9908 31.67 27.9908ZM26.9846 26.4008H31.4367V20.0453H26.9846V26.4008Z" fill="url(#paint5_linear_1978_43629)"/>
<path d="M15.9219 36.2519V19.0243C15.9219 18.2644 16.5378 17.6484 17.2978 17.6484H21.1182C21.8781 17.6484 22.494 18.2644 22.494 19.0243V36.2518H15.9219V36.2519Z" fill="url(#paint6_linear_1978_43629)"/>
<path d="M23.309 36.251H21.6815V19.4926C21.6815 18.9254 21.2175 18.4614 20.6504 18.4614H17.768C17.1985 18.4614 16.7369 18.9231 16.7369 19.4926V36.2511H15.1094V18.4164C15.1094 17.5424 15.8179 16.834 16.6918 16.834H21.7265C22.6005 16.834 23.3089 17.5424 23.3089 18.4164V36.2511H23.309V36.251Z" fill="white"/>
<path d="M18.0428 24.8551C18.4526 24.8551 18.7848 24.5229 18.7848 24.1131C18.7848 23.7033 18.4526 23.3711 18.0428 23.3711C17.633 23.3711 17.3008 23.7033 17.3008 24.1131C17.3008 24.5229 17.633 24.8551 18.0428 24.8551Z" fill="white"/>
<path d="M36.0942 33.0895V35.0724C36.0942 35.7237 35.5662 36.2518 34.9148 36.2518H3.49968C2.84833 36.2518 2.32031 35.7237 2.32031 35.0724V33.0895C2.32031 32.4382 2.84833 31.9102 3.49968 31.9102H34.9148C35.5661 31.9102 36.0942 32.4382 36.0942 33.0895Z" fill="url(#paint7_linear_1978_43629)"/>
<path d="M31.4185 2.4685C31.0674 2.01416 30.5256 1.74805 29.9513 1.74805H8.46275C7.88847 1.74805 7.34668 2.01409 6.99552 2.4685L0.644531 10.6872L0.97213 13.0168H37.3328L37.7695 10.6872L31.4185 2.4685Z" fill="url(#paint8_linear_1978_43629)"/>
<path d="M26.5362 2.4685C26.3255 2.01416 26.0002 1.74805 25.6556 1.74805H12.7587C12.4139 1.74805 12.0888 2.01409 11.8781 2.4685L8.06641 10.6871L8.47007 12.944H29.9079L30.348 10.6871L26.5362 2.4685Z" fill="url(#paint9_linear_1978_43629)"/>
<path d="M21.6509 2.4685C21.5807 2.01416 21.4723 1.74805 21.3575 1.74805H17.0598C16.9449 1.74805 16.8366 2.01409 16.7663 2.4685L15.4961 10.6872H22.9211L21.6509 2.4685Z" fill="url(#paint10_linear_1978_43629)"/>
<path d="M4.35703 16.5567C2.30667 16.5567 0.644531 14.8945 0.644531 12.8442V10.6875H8.06953V12.8442C8.06953 14.8946 6.40739 16.5567 4.35703 16.5567Z" fill="url(#paint11_linear_1978_43629)"/>
<path d="M11.7828 16.5567C9.73246 16.5567 8.07031 14.8945 8.07031 12.8442V10.6875H15.4953V12.8442C15.4953 14.8946 13.8332 16.5567 11.7828 16.5567Z" fill="url(#paint12_linear_1978_43629)"/>
<path d="M19.2086 16.5567C17.1582 16.5567 15.4961 14.8945 15.4961 12.8442V10.6875H22.9211V12.8442C22.9211 14.8946 21.2589 16.5567 19.2086 16.5567Z" fill="url(#paint13_linear_1978_43629)"/>
<path d="M26.6305 16.5567C24.5801 16.5567 22.918 14.8945 22.918 12.8442V10.6875H30.343V12.8442C30.343 14.8946 28.6808 16.5567 26.6305 16.5567Z" fill="url(#paint14_linear_1978_43629)"/>
<path d="M34.0562 16.5567C32.0059 16.5567 30.3438 14.8945 30.3438 12.8442V10.6875H37.7687V12.8442C37.7687 14.8946 36.1066 16.5567 34.0562 16.5567Z" fill="url(#paint15_linear_1978_43629)"/>
</g>
<defs>
<linearGradient id="paint0_linear_1978_43629" x1="19.2089" y1="24.2814" x2="19.2089" y2="41.467" gradientUnits="userSpaceOnUse">
<stop stop-color="#7FCEFF"/>
<stop offset="1" stop-color="#0074BD"/>
</linearGradient>
<linearGradient id="paint1_linear_1978_43629" x1="20.9235" y1="24.7693" x2="17.7424" y2="5.27475" gradientUnits="userSpaceOnUse">
<stop stop-color="#7FCEFF"/>
<stop offset="1" stop-color="#0074BD"/>
</linearGradient>
<linearGradient id="paint2_linear_1978_43629" x1="17.8895" y1="31.7141" x2="4.4214" y2="18.2467" gradientUnits="userSpaceOnUse">
<stop stop-color="#7FCEFF"/>
<stop offset="1" stop-color="#0074BD"/>
</linearGradient>
<linearGradient id="paint3_linear_1978_43629" x1="11.3256" y1="24.619" x2="18.9576" y2="30.1447" gradientUnits="userSpaceOnUse">
<stop stop-color="#FFB92D"/>
<stop offset="1" stop-color="#F59500"/>
</linearGradient>
<linearGradient id="paint4_linear_1978_43629" x1="37.2731" y1="31.2853" x2="26.6534" y2="20.6663" gradientUnits="userSpaceOnUse">
<stop stop-color="#7FCEFF"/>
<stop offset="1" stop-color="#0074BD"/>
</linearGradient>
<linearGradient id="paint5_linear_1978_43629" x1="31.1381" y1="24.6193" x2="38.7696" y2="30.145" gradientUnits="userSpaceOnUse">
<stop stop-color="#FFB92D"/>
<stop offset="1" stop-color="#F59500"/>
</linearGradient>
<linearGradient id="paint6_linear_1978_43629" x1="15.9216" y1="26.9504" x2="22.4936" y2="26.9504" gradientUnits="userSpaceOnUse">
<stop stop-color="#FF4C54"/>
<stop offset="1" stop-color="#BE3F45"/>
</linearGradient>
<linearGradient id="paint7_linear_1978_43629" x1="19.2069" y1="32.5534" x2="19.2069" y2="38.0791" gradientUnits="userSpaceOnUse">
<stop stop-color="#FFB92D"/>
<stop offset="1" stop-color="#F59500"/>
</linearGradient>
<linearGradient id="paint8_linear_1978_43629" x1="13.7401" y1="5.27784" x2="32.5155" y2="24.0532" gradientUnits="userSpaceOnUse">
<stop stop-color="#FF4C54"/>
<stop offset="1" stop-color="#BE3F45"/>
</linearGradient>
<linearGradient id="paint9_linear_1978_43629" x1="19.2067" y1="3.84748" x2="19.2067" y2="12.9737" gradientUnits="userSpaceOnUse">
<stop stop-color="white"/>
<stop offset="1" stop-color="#F2F2F2"/>
</linearGradient>
<linearGradient id="paint10_linear_1978_43629" x1="17.7611" y1="7.27716" x2="2.48347" y2="14.5637" gradientUnits="userSpaceOnUse">
<stop stop-color="#FF4C54"/>
<stop offset="1" stop-color="#BE3F45"/>
</linearGradient>
<linearGradient id="paint11_linear_1978_43629" x1="2.87841" y1="11.0568" x2="7.98197" y2="16.1603" gradientUnits="userSpaceOnUse">
<stop stop-color="#FF4C54"/>
<stop offset="1" stop-color="#BE3F45"/>
</linearGradient>
<linearGradient id="paint12_linear_1978_43629" x1="10.3041" y1="11.0568" x2="15.4076" y2="16.1603" gradientUnits="userSpaceOnUse">
<stop stop-color="white"/>
<stop offset="1" stop-color="#F2F2F2"/>
</linearGradient>
<linearGradient id="paint13_linear_1978_43629" x1="17.7297" y1="11.0568" x2="22.8332" y2="16.1603" gradientUnits="userSpaceOnUse">
<stop stop-color="#FF4C54"/>
<stop offset="1" stop-color="#BE3F45"/>
</linearGradient>
<linearGradient id="paint14_linear_1978_43629" x1="25.1514" y1="11.0568" x2="30.2549" y2="16.1603" gradientUnits="userSpaceOnUse">
<stop stop-color="white"/>
<stop offset="1" stop-color="#F2F2F2"/>
</linearGradient>
<linearGradient id="paint15_linear_1978_43629" x1="32.577" y1="11.0568" x2="37.6805" y2="16.1603" gradientUnits="userSpaceOnUse">
<stop stop-color="#FF4C54"/>
<stop offset="1" stop-color="#BE3F45"/>
</linearGradient>
<clipPath id="clip0_1978_43629">
<rect width="37.125" height="37.125" fill="white" transform="translate(0.644531 0.4375)"/>
</clipPath>
</defs>
</svg>
