<svg width="38" height="38" viewBox="0 0 38 38" fill="none" xmlns="http://www.w3.org/2000/svg">
<path d="M32.8684 25.1354L22.819 35.1848C22.4111 35.5927 21.8578 35.8219 21.2809 35.8219C20.704 35.8219 20.1507 35.5927 19.7427 35.1848L5.19575 20.6378C4.96703 20.4091 4.7922 20.1323 4.68397 19.8275C4.57575 19.5227 4.53686 19.1976 4.57014 18.8758L5.51226 9.76859C5.56366 9.27163 5.78457 8.80752 6.13784 8.45425C6.49112 8.10097 6.95523 7.88007 7.45218 7.82866L16.5594 6.88654C16.8811 6.85327 17.2063 6.89216 17.5111 7.00038C17.8159 7.10861 18.0927 7.28344 18.3214 7.51216L32.8684 22.0591C33.2763 22.4671 33.5055 23.0204 33.5055 23.5973C33.5055 24.1742 33.2763 24.7275 32.8684 25.1354Z" fill="#FAC850"/>
<path d="M21.2813 33.7212C21.1098 33.7216 20.9399 33.6881 20.7815 33.6225C20.6231 33.5569 20.4793 33.4605 20.3583 33.339L19.7539 32.7345L20.5743 31.9141L21.1787 32.5185C21.2059 32.5457 21.2428 32.561 21.2813 32.561C21.3197 32.561 21.3566 32.5457 21.3838 32.5185L21.9711 31.9312L22.7915 32.7516L22.2042 33.3389C22.0832 33.4604 21.9394 33.5568 21.781 33.6224C21.6226 33.688 21.4527 33.7216 21.2813 33.7212Z" fill="#FFFFFE"/>
<path d="M30.4351 25.1079L29.6148 24.2875L30.2021 23.7002C30.2293 23.673 30.2446 23.6361 30.2446 23.5977C30.2446 23.5592 30.2293 23.5223 30.2021 23.4951L29.5977 22.8907L30.4181 22.0703L31.0225 22.6748C31.1438 22.796 31.2399 22.9398 31.3055 23.0982C31.3711 23.2566 31.4049 23.4263 31.4049 23.5977C31.4049 23.7691 31.3711 23.9388 31.3055 24.0972C31.2399 24.2556 31.1438 24.3994 31.0225 24.5206L30.4351 25.1079Z" fill="#FFFFFE"/>
<path d="M7.57123 20.5524L6.71837 19.6995C6.58082 19.5625 6.47572 19.3964 6.41078 19.2134C6.34585 19.0304 6.32273 18.8352 6.34313 18.6422L6.43232 17.7793L7.58638 17.8985L7.49712 18.7614C7.49485 18.7828 7.49742 18.8045 7.50463 18.8248C7.51185 18.8452 7.52353 18.8636 7.53882 18.8788L8.3916 19.7316L7.57123 20.5524Z" fill="#FFFFFE"/>
<path d="M34.6013 18.4199H14.3828L15.4415 6.32007C15.4573 6.1394 15.5402 5.97121 15.6739 5.84869C15.8077 5.72617 15.9824 5.6582 16.1638 5.6582H35.5909C35.6915 5.6582 35.7909 5.67911 35.883 5.71961C35.975 5.76011 36.0576 5.81931 36.1255 5.89344C36.1935 5.96758 36.2452 6.05503 36.2776 6.15025C36.3099 6.24546 36.322 6.34636 36.3133 6.44653L35.3236 17.7581C35.3078 17.9387 35.2249 18.1069 35.0912 18.2294C34.9575 18.352 34.7827 18.4199 34.6013 18.4199Z" fill="#FA5D3F"/>
<path d="M19.1489 10.2988H21.3242V9.13867H19.1489C18.8029 9.13907 18.4712 9.27671 18.2265 9.52139C17.9818 9.76607 17.8442 10.0978 17.8438 10.4438V11.314C17.8442 11.66 17.9818 11.9917 18.2265 12.2364C18.4712 12.4811 18.8029 12.6187 19.1489 12.6191H20.019C20.0575 12.6191 20.0944 12.6344 20.1216 12.6616C20.1488 12.6888 20.1641 12.7257 20.1641 12.7642V13.6343C20.1641 13.6727 20.1488 13.7096 20.1216 13.7368C20.0944 13.764 20.0575 13.7793 20.019 13.7793H17.8438V14.9395H20.019C20.3651 14.9391 20.6968 14.8014 20.9415 14.5567C21.1862 14.3121 21.3238 13.9803 21.3242 13.6343V12.7642C21.3238 12.4181 21.1862 12.0864 20.9415 11.8417C20.6968 11.597 20.3651 11.4594 20.019 11.459H19.1489C19.1105 11.459 19.0736 11.4437 19.0464 11.4165C19.0192 11.3893 19.0039 11.3524 19.0039 11.314V10.4438C19.0039 10.4054 19.0192 10.3685 19.0464 10.3413C19.0736 10.3141 19.1105 10.2988 19.1489 10.2988Z" fill="#FFFBFA"/>
<path d="M25.9648 14.9395V10.8789C25.9648 10.4174 25.7815 9.97473 25.4551 9.64837C25.1288 9.32202 24.6861 9.13867 24.2246 9.13867C23.7631 9.13867 23.3204 9.32202 22.9941 9.64837C22.6677 9.97473 22.4844 10.4174 22.4844 10.8789V14.9395H23.6445V13.1992H24.8047V14.9395H25.9648ZM23.6445 12.0391V10.8789C23.6445 10.7251 23.7056 10.5775 23.8144 10.4687C23.9232 10.3599 24.0708 10.2988 24.2246 10.2988C24.3785 10.2988 24.526 10.3599 24.6348 10.4687C24.7436 10.5775 24.8047 10.7251 24.8047 10.8789V12.0391H23.6445Z" fill="#FFFBFA"/>
<path d="M27.125 9.13867V14.3594C27.125 14.5132 27.1861 14.6608 27.2949 14.7696C27.4037 14.8783 27.5512 14.9395 27.7051 14.9395H30.0254V13.7793H28.2852V9.13867H27.125Z" fill="#FFFBFA"/>
<path d="M34.0879 10.2988V9.13867H31.7676C31.6137 9.13867 31.4662 9.19979 31.3574 9.30857C31.2486 9.41736 31.1875 9.5649 31.1875 9.71875V14.3594C31.1875 14.5132 31.2486 14.6608 31.3574 14.7696C31.4662 14.8783 31.6137 14.9395 31.7676 14.9395H34.0879V13.7793H32.3477V12.6191H33.5078V11.459H32.3477V10.2988H34.0879Z" fill="#FFFBFA"/>
<path d="M10.8793 7.4746C10.8807 7.44922 10.8807 7.42385 10.8807 7.39847C10.8794 6.55349 10.614 5.73006 10.1217 5.04331C9.62937 4.35655 8.93478 3.84079 8.13501 3.56812C7.33523 3.29546 6.47024 3.27953 5.66096 3.52255C4.85168 3.76557 4.13857 4.25539 3.62131 4.92355C3.10406 5.59171 2.80852 6.4048 2.776 7.24916C2.74349 8.09351 2.97563 8.92692 3.43997 9.63288C3.90431 10.3388 4.57764 10.8821 5.36584 11.1866C6.15403 11.4911 7.01768 11.5418 7.83606 11.3314L8.12465 12.4546C7.07215 12.7264 5.96105 12.6629 4.94634 12.2731C3.93163 11.8832 3.0639 11.1864 2.46418 10.2797C1.86446 9.37308 1.56267 8.30188 1.60089 7.21552C1.6391 6.12916 2.01543 5.08181 2.67738 4.21956C3.33933 3.35731 4.25388 2.72316 5.29348 2.40556C6.33309 2.08796 7.44589 2.10275 8.47669 2.44786C9.50749 2.79297 10.4049 3.4512 11.0437 4.33073C11.6825 5.21026 12.0308 6.26724 12.0402 7.35424L10.8793 7.4746Z" fill="#FA7D29"/>
<path d="M9.79303 10.9531C9.52462 10.9531 9.26451 11.0462 9.05703 11.2164C8.84954 11.3867 8.70751 11.6237 8.65514 11.8869C8.60277 12.1502 8.64329 12.4234 8.76981 12.6601C8.89633 12.8969 9.10101 13.0824 9.34898 13.1851C9.59695 13.2878 9.87286 13.3014 10.1297 13.2235C10.3866 13.1456 10.6085 12.981 10.7576 12.7579C10.9067 12.5347 10.9739 12.2667 10.9476 11.9996C10.9213 11.7325 10.8032 11.4828 10.6134 11.293C10.5059 11.1849 10.3781 11.0992 10.2372 11.0409C10.0964 10.9826 9.94545 10.9527 9.79303 10.9531ZM9.79303 14.4336C9.41144 14.4336 9.03575 14.3395 8.69922 14.1596C8.36269 13.9798 8.07572 13.7197 7.86372 13.4024C7.65172 13.0851 7.52124 12.7205 7.48383 12.3407C7.44643 11.961 7.50325 11.5779 7.64928 11.2253C7.7953 10.8728 8.02601 10.5617 8.32098 10.3197C8.61595 10.0776 8.96606 9.91199 9.34031 9.83755C9.71456 9.76311 10.1014 9.78212 10.4665 9.89289C10.8317 10.0037 11.1639 10.2028 11.4337 10.4726C11.7582 10.7971 11.9791 11.2105 12.0686 11.6606C12.1581 12.1107 12.1122 12.5772 11.9366 13.0012C11.7609 13.4252 11.4636 13.7875 11.082 14.0425C10.7004 14.2974 10.2518 14.4335 9.79295 14.4335L9.79303 14.4336Z" fill="#FFFFFE"/>
<path d="M14.3594 18.4199H22.4805V25.9609H21.3203L14.3594 18.4199Z" fill="#FA7D29"/>
</svg>
