<svg width="38" height="38" viewBox="0 0 38 38" fill="none" xmlns="http://www.w3.org/2000/svg">
<path d="M17.6758 3.08984H22.9794V20.3265H17.6758V3.08984Z" fill="#00A0C8"/>
<path d="M34.2472 37.5622H20.9883V9.71847C20.9883 8.98592 21.5816 8.39258 22.3142 8.39258H32.9213C33.6539 8.39258 34.2472 8.98592 34.2472 9.71847V37.5622Z" fill="#0082AA"/>
<path d="M34.9113 37.5622H21.6523V9.71847C21.6523 8.98592 22.2457 8.39258 22.9782 8.39258H33.5854C34.3179 8.39258 34.9113 8.98592 34.9113 9.71847V37.5622Z" fill="#0A5078"/>
<path d="M17.6758 17.9688V20.3249H22.9794V20.0902L17.6758 17.9688Z" fill="#0082AA"/>
<path d="M21.6523 22.4165L27.7892 24.8714C27.951 24.9364 28.1174 24.9662 28.2818 24.9662C28.8075 24.9662 29.3054 24.6507 29.5129 24.1322C29.7847 23.4527 29.4545 22.681 28.7744 22.4086L21.6523 19.5605V22.4165Z" fill="#00325A"/>
<path d="M21.6523 13.0332H34.9113V13.6961H21.6523V13.0332Z" fill="#00325A"/>
<path d="M21.6523 18.3359H34.9113V18.9989H21.6523V18.3359Z" fill="#00325A"/>
<path d="M21.6523 23.6406H34.9113V24.3036H21.6523V23.6406Z" fill="#00325A"/>
<path d="M21.6523 28.9453H34.9113V29.6083H21.6523V28.9453Z" fill="#00325A"/>
<path d="M21.6523 34.248H34.9113V34.911H21.6523V34.248Z" fill="#00325A"/>
<path d="M28.2796 24.3036L15.0206 19L1.76172 24.3036V37.5625H28.2796V24.3036Z" fill="#FAB400"/>
<path d="M28.2796 24.3036L15.0206 19L1.76172 24.3036V26.2924C1.92547 26.2924 2.09253 26.2619 2.25429 26.1976L15.0206 21.0909L27.787 26.1976C27.9488 26.2626 28.1152 26.2924 28.2796 26.2924V24.3036Z" fill="#DC9600"/>
<path d="M28.2816 25.6289C28.1172 25.6289 27.9508 25.5984 27.7897 25.5334L15.0227 20.4274L2.25634 25.5341C1.57748 25.8066 0.805147 25.4757 0.532676 24.7956C0.260868 24.116 0.591015 23.3444 1.2712 23.0719L14.5301 17.7683C14.8463 17.6423 15.199 17.6423 15.5146 17.7683L28.7735 23.0719C29.4537 23.3437 29.7838 24.1154 29.512 24.7956C29.3052 25.314 28.8073 25.6289 28.2816 25.6289Z" fill="#C80A50"/>
<path d="M24.3025 26.9551H5.73996C5.0074 26.9551 4.41406 27.5484 4.41406 28.281V37.5622H25.6284V28.281C25.6284 27.5484 25.035 26.9551 24.3025 26.9551Z" fill="#F0F0F0"/>
<path d="M24.3025 26.9551H5.73996C5.0074 26.9551 4.41406 27.5484 4.41406 28.281V28.9439C4.41406 28.2114 5.0074 27.618 5.73996 27.618H24.3025C25.035 27.618 25.6284 28.2114 25.6284 28.9439V28.281C25.6284 27.5484 25.035 26.9551 24.3025 26.9551Z" fill="#D2D2D2"/>
<path d="M7.73103 30.933H6.40513C6.03919 30.933 5.74219 30.636 5.74219 30.2701V28.9442C5.74219 28.5783 6.03919 28.2812 6.40513 28.2812H7.73103C8.09697 28.2812 8.39397 28.5783 8.39397 28.9442V30.2701C8.39397 30.636 8.09697 30.933 7.73103 30.933Z" fill="#0A5078"/>
<path d="M11.7076 30.933H10.3817C10.0158 30.933 9.71875 30.636 9.71875 30.2701V28.9442C9.71875 28.5783 10.0158 28.2812 10.3817 28.2812H11.7076C12.0735 28.2812 12.3705 28.5783 12.3705 28.9442V30.2701C12.3705 30.636 12.0735 30.933 11.7076 30.933Z" fill="#0A5078"/>
<path d="M15.6842 30.933H14.3583C13.9923 30.933 13.6953 30.636 13.6953 30.2701V28.9442C13.6953 28.5783 13.9923 28.2812 14.3583 28.2812H15.6842C16.0501 28.2812 16.3471 28.5783 16.3471 28.9442V30.2701C16.3471 30.636 16.0501 30.933 15.6842 30.933Z" fill="#0A5078"/>
<path d="M19.6646 30.933H18.3387C17.9728 30.933 17.6758 30.636 17.6758 30.2701V28.9442C17.6758 28.5783 17.9728 28.2812 18.3387 28.2812H19.6646C20.0306 28.2812 20.3276 28.5783 20.3276 28.9442V30.2701C20.3276 30.636 20.0306 30.933 19.6646 30.933Z" fill="#0A5078"/>
<path d="M23.6412 30.933H22.3153C21.9493 30.933 21.6523 30.636 21.6523 30.2701V28.9442C21.6523 28.5783 21.9493 28.2812 22.3153 28.2812H23.6412C24.0071 28.2812 24.3041 28.5783 24.3041 28.9442V30.2701C24.3041 30.636 24.0071 30.933 23.6412 30.933Z" fill="#0A5078"/>
<path d="M28.2812 37.5619H1.76339C1.03084 37.5619 0.4375 36.9686 0.4375 36.236C0.4375 35.5035 1.03084 34.9102 1.76339 34.9102H28.2812C29.0138 34.9102 29.6071 35.5035 29.6071 36.236C29.6071 36.9686 29.0138 37.5619 28.2812 37.5619Z" fill="#00A0C8"/>
<path d="M34.9102 13.6953V15.0212H36.2361V18.9989H34.9102V20.3248H36.2361V24.3025H34.9102V25.6283H36.2361V29.606H34.9102V30.9319H36.2361V34.9096H34.9102V36.2355H36.2361V37.5614H37.5619V15.0212C37.5619 14.2886 36.9686 13.6953 36.2361 13.6953H34.9102Z" fill="#00A0C8"/>
<path d="M34.9102 13.6953H35.5731V15.0212H34.9102V13.6953Z" fill="#0082AA"/>
<path d="M34.9102 19H35.5731V20.3259H34.9102V19Z" fill="#0082AA"/>
<path d="M34.9102 24.3047H35.5731V25.6306H34.9102V24.3047Z" fill="#0082AA"/>
<path d="M34.9102 29.6074H35.5731V30.9333H34.9102V29.6074Z" fill="#0082AA"/>
<path d="M34.9102 34.9102H35.5731V36.236H34.9102V34.9102Z" fill="#0082AA"/>
<path d="M22.9771 3.08929H17.6735C16.941 3.08929 16.3477 2.49595 16.3477 1.76339C16.3477 1.03084 16.941 0.4375 17.6735 0.4375H22.9771C23.7097 0.4375 24.303 1.03084 24.303 1.76339C24.303 2.49595 23.7097 3.08929 22.9771 3.08929Z" fill="#FAB400"/>
</svg>
