<svg width="171" height="22" viewBox="0 0 171 22" fill="none" xmlns="http://www.w3.org/2000/svg">
<path d="M0 21.7107H4.35585V13.2708H12.7356V9.70926H4.35585V4.84086H13.641V1.27934H0V21.7107Z" fill="#E60A32"/>
<path d="M16.5709 21.7107H29.7591V18.1492H20.9267V1.27934H16.5709V21.7107Z" fill="#E60A32"/>
<path d="M36.7205 21.7107L38.2495 17.0518H45.6837L47.2127 21.7107H51.8804L44.7783 1.27934H39.165L32.0528 21.7107H36.7205ZM39.3561 13.6798L41.8912 5.94822H42.0521L44.5872 13.6798H39.3561Z" fill="#E60A32"/>
<path d="M74.0294 21.7107H78.3853V13.2708H87.2278V21.7107H91.5735V1.27934H87.2278V9.70926H78.3853V1.27934H74.0294V21.7107Z" fill="#E60A32"/>
<path d="M112.898 7.15534H117.072C117.012 3.51401 113.994 1 109.407 1C104.89 1 101.58 3.47411 101.601 7.18527C101.59 10.1981 103.733 11.924 107.214 12.752L109.457 13.3107C111.701 13.8494 112.948 14.4879 112.958 15.8646C112.948 17.361 111.519 18.3786 109.306 18.3786C107.043 18.3786 105.413 17.3411 105.272 15.296H101.057C101.168 19.7154 104.357 22 109.357 22C114.386 22 117.344 19.6157 117.354 15.8746C117.344 12.4727 114.759 10.667 111.177 9.86889L109.326 9.42993C107.536 9.0209 106.037 8.36247 106.067 6.89596C106.067 5.5791 107.244 4.6114 109.377 4.6114C111.459 4.6114 112.737 5.54917 112.898 7.15534Z" fill="#E60A32"/>
<path d="M123.365 21.7107L124.894 17.0518H132.328L133.857 21.7107H138.525L131.423 1.27934H125.809L118.697 21.7107H123.365ZM126 13.6798L128.535 5.94822H128.696L131.231 13.6798H126Z" fill="#E60A32"/>
<path d="M141.004 21.7107H154.193V18.1492H145.36V1.27934H141.004V21.7107Z" fill="#E60A32"/>
<path d="M157.077 21.7107H171V18.1492H161.433V13.2708H170.246V9.70926H161.433V4.84086H170.96V1.27934H157.077V21.7107Z" fill="#E60A32"/>
<path d="M59.3779 12L61 13.84L56.6221 14L55 12.16L59.3779 12Z" fill="url(#paint0_linear_870_97708)"/>
<path d="M67.6085 0L69 1.88244L64.3915 11L63 9.10938L67.6085 0Z" fill="url(#paint1_linear_870_97708)"/>
<path d="M66.5427 9L68 10.7896L58.4573 22L57 20.2181L66.5427 9Z" fill="url(#paint2_linear_870_97708)"/>
<path opacity="0.7" d="M67.0331 9.13578L56.9669 21L56.8264 20.8197L59.314 11.9052L55.1322 12.0609L55 11.9052L58.7438 0.311354L67.8347 0L68 0.196645L62.9091 9.29146L66.8926 8.95552L67.0331 9.13578Z" fill="white"/>
<path d="M67.0457 8.60291L56.85 20L59.2022 11.279L55 11.4364L58.6246 0.133806L68 0L62.8435 8.76033L67.0457 8.60291Z" fill="url(#paint3_linear_870_97708)"/>
<defs>
<linearGradient id="paint0_linear_870_97708" x1="54.4161" y1="14.2614" x2="58.5116" y2="12.5491" gradientUnits="userSpaceOnUse">
<stop stop-color="#FF9C40"/>
<stop offset="1" stop-color="#FF6F00"/>
</linearGradient>
<linearGradient id="paint1_linear_870_97708" x1="67.104" y1="2.6384" x2="63.7508" y2="9.91405" gradientUnits="userSpaceOnUse">
<stop stop-color="#FF9C40"/>
<stop offset="1" stop-color="#FF6F00"/>
</linearGradient>
<linearGradient id="paint2_linear_870_97708" x1="67.7452" y1="8.95515" x2="58.1339" y2="21.2244" gradientUnits="userSpaceOnUse">
<stop stop-color="#FF9C40"/>
<stop offset="1" stop-color="#FF6F00"/>
</linearGradient>
<linearGradient id="paint3_linear_870_97708" x1="58.0167" y1="5.59574" x2="71.4476" y2="20.7783" gradientUnits="userSpaceOnUse">
<stop stop-color="#FFD540"/>
<stop offset="1" stop-color="#FF7B00"/>
</linearGradient>
</defs>
</svg>
